# xmcd
#
# Track frame offsets:
#	151
#	48598
#	95049
#	142351
#
# Disc length: 2560 seconds
#
# Revision: 1
# Processed by: cddbd v1.5.2PL0 Copyright (c) Steve Scherf et al.
# Submitted via: audiograbber 1.83.01
#
DISCID=3d09fe04
DTITLE=karda - chrifa
DYEAR=2006
DGENRE=chelha
TTITLE0=chanson1
TTITLE1=chanson2
TTITLE2=chanson3
TTITLE3=chanson4
EXTD=
EXTT0=
EXTT1=
EXTT2=
EXTT3=
PLAYORDER=
